<svg width="1057" height="218" viewBox="0 0 1057 218" fill="none" xmlns="http://www.w3.org/2000/svg">
<path d="M0.00351772 -0.00157881L104.704 111.598L209.404 -0.00157881V215.398H174.304V83.3984L104.704 158.698L34.8035 83.3984V215.398H0.00351772V-0.00157881ZM279.011 167.698L250.211 108.898L279.011 50.0984L250.211 2.39843H288.011L316.811 50.0984L288.011 108.898L316.511 167.698L287.711 215.398H250.211L279.011 167.698ZM325.731 2.39843H364.431L424.731 137.998L485.031 2.39843H523.731L424.731 217.798L325.731 2.39843ZM566.12 167.698L537.32 108.898L566.12 50.0984L537.32 2.39843H575.12L603.92 50.0984L575.12 108.898L603.62 167.698L574.82 215.398H537.32L566.12 167.698ZM679.042 78.5984V215.398H644.242V-0.00157881L789.742 139.198V2.39843H824.542V217.798L679.042 78.5984ZM952.145 -0.00157881L1056.54 215.398H1019.34L996.845 167.998H907.445L885.245 215.398H848.045L952.145 -0.00157881ZM982.445 137.698L952.145 73.4984L921.845 137.698H982.445Z" fill="black"/>
</svg>
